# xmcd
#
# Track frame offsets:
#	182
#	16495
#	34270
#	47747
#	61600
#	77542
#	91007
#	106355
#	120370
#	133580
#
# Disc length: 1989 seconds
#
# Revision: 6
# Processed by: cddbd v1.5.2PL0 Copyright (c) Steve Scherf et al.
# Submitted via: audiograbber 1.83.01
#
DISCID=6f07c30a
DTITLE=Tracy Lawrence - The Coast Is Clear
DYEAR=1997
DGENRE=Country
TTITLE0=Better Man, Better Off
TTITLE1=The Coast Is Clear
TTITLE2=Any Minute Now
TTITLE3=While You Sleep
TTITLE4=How A Cowgirl Says Goodbye
TTITLE5=One Step Ahead Of The Storm
TTITLE6=In A Moment Of Weakness
TTITLE7=Livin' In Black And White
TTITLE8=I Hit The Ground Crawlin'
TTITLE9=As Lonesome As It Gets
EXTD=
EXTT0=
EXTT1=
EXTT2=
EXTT3=
EXTT4=
EXTT5=
EXTT6=
EXTT7=
EXTT8=
EXTT9=
PLAYORDER=
